<svg width="139" height="37" viewBox="0 0 139 37" fill="none" xmlns="http://www.w3.org/2000/svg">
<g id="Layer_1" clip-path="url(#clip0_2720_377)">
<path id="Vector" d="M29.9703 8.77433H24.6131V3.41003C24.6131 1.83553 23.3393 0.560059 21.7669 0.560059H2.84619C1.27378 0.560059 0 1.83553 0 3.41003V30.5702C0 32.1447 1.27378 33.4202 2.84619 33.4202H27.3466L29.9977 36.0749C30.3085 36.3861 30.726 36.5601 31.1648 36.5601C32.076 36.5601 32.8165 35.8216 32.8165 34.9062V11.6243C32.8165 10.0498 31.5427 8.77433 29.9703 8.77433ZM30.083 30.6801H2.73344V3.29713H21.8766V8.77433H11.0495C9.47713 8.77433 8.20336 10.0498 8.20336 11.6243V22.356C8.20336 23.9305 9.47713 25.2059 11.0495 25.2059H21.7669C23.3393 25.2059 24.6131 23.9305 24.6131 22.356V11.5145H30.083V30.6831V30.6801ZM21.8797 11.5114V22.4658H10.9398V11.5114H21.8797Z" fill="#FFF9F4"/>
<g id="Vector_2">
<path d="M74.3179 9.6287C73.2148 8.92993 71.9135 8.57598 70.4539 8.57598C68.9942 8.57598 67.693 8.92993 66.5899 9.6287C65.4868 10.3275 64.6183 11.3192 64.0027 12.5794C63.3902 13.8365 63.0794 15.3225 63.0794 17.0008C63.0794 18.679 63.3902 20.1437 64.0027 21.3917C64.6183 22.6458 65.4898 23.6345 66.5899 24.3332C67.693 25.032 68.9942 25.3859 70.4539 25.3859C71.9135 25.3859 73.2148 25.032 74.3179 24.3332C75.421 23.6345 76.2895 22.6458 76.905 21.3917C77.5176 20.1437 77.8284 18.6668 77.8284 17.0008C77.8284 15.3347 77.5176 13.8335 76.905 12.5794C76.2895 11.3192 75.418 10.3275 74.3179 9.6287ZM74.583 19.924C74.2539 20.8089 73.7419 21.5321 73.0624 22.0752C72.3859 22.6123 71.5083 22.8869 70.4539 22.8869C69.3995 22.8869 68.5219 22.6153 67.8454 22.0752C67.1628 21.5321 66.6508 20.8089 66.3248 19.924C65.9926 19.0299 65.825 18.0474 65.825 17.0008C65.825 15.9542 65.9926 14.9686 66.3248 14.0684C66.6539 13.1774 67.1658 12.4451 67.8484 11.8959C68.5249 11.3527 69.4026 11.075 70.4569 11.075C71.5113 11.075 72.3889 11.3497 73.0654 11.8959C73.748 12.4451 74.26 13.1744 74.5891 14.0684C74.9212 14.9686 75.0888 15.9572 75.0888 17.0008C75.0888 18.0444 74.9212 19.0299 74.5891 19.924H74.583Z" fill="#FFF9F4"/>
<path d="M87.464 11.0811L87.4457 8.70108C87.4457 8.61259 87.3726 8.54241 87.2872 8.53936C87.0861 8.53631 86.9124 8.53326 86.7661 8.53326C85.7849 8.53326 84.892 8.78957 84.1089 9.2961C83.4171 9.7416 82.9082 10.3153 82.5913 11.0018V8.94519C82.5913 8.8567 82.5182 8.78347 82.4298 8.78347H80.0895C80.0011 8.78347 79.928 8.8567 79.928 8.94519V24.9893C79.928 25.0778 80.0011 25.151 80.0895 25.151H82.5121C82.6005 25.151 82.6736 25.0778 82.6736 24.9893V14.7947C82.6736 14.105 82.8412 13.4826 83.1764 12.9425C83.5116 12.4024 83.9748 11.9721 84.5538 11.664C85.1358 11.3558 85.8093 11.1971 86.5559 11.1971C86.8058 11.1971 87.0495 11.2124 87.2811 11.2398C87.3787 11.252 87.4609 11.1788 87.4609 11.0811H87.464Z" fill="#FFF9F4"/>
<path d="M106.333 8.78652H108.756C108.844 8.78652 108.917 8.85975 108.917 8.94824V25.0564C108.917 25.1449 108.844 25.2181 108.756 25.2181H106.333C106.245 25.2181 106.171 25.1449 106.171 25.0564V8.94824C106.171 8.85975 106.245 8.78652 106.333 8.78652Z" fill="#FFF9F4"/>
<path d="M107.564 2.79364C107.049 2.79364 106.601 2.97062 106.232 3.32458C105.861 3.67854 105.672 4.10878 105.672 4.60615C105.672 5.10352 105.861 5.53377 106.232 5.88772C106.601 6.23863 107.049 6.41866 107.564 6.41866C108.079 6.41866 108.527 6.24168 108.896 5.88772C109.267 5.53377 109.456 5.10352 109.456 4.60615C109.456 4.10878 109.267 3.67854 108.896 3.32458C108.527 2.97367 108.079 2.79364 107.564 2.79364Z" fill="#FFF9F4"/>
<path d="M121.987 9.5219C121.347 9.14048 120.68 8.88416 119.994 8.75906C119.321 8.637 118.717 8.57598 118.196 8.57598C117.386 8.57598 116.548 8.68888 115.713 8.90857C114.868 9.13132 114.082 9.52495 113.375 10.0803C112.702 10.6082 112.15 11.3375 111.736 12.2498C111.696 12.3353 111.739 12.439 111.827 12.4695L114.125 13.3117C114.201 13.3392 114.283 13.3056 114.323 13.2324C114.591 12.7197 115.024 12.2285 115.618 11.7708C116.252 11.2795 117.148 11.0323 118.281 11.0323C119.415 11.0323 120.18 11.3039 120.704 11.8409C121.231 12.378 121.496 13.1469 121.496 14.1295V14.2118C121.496 14.5536 121.384 14.7825 121.149 14.9167C120.887 15.0662 120.46 15.173 119.878 15.2371C119.275 15.3012 118.479 15.3988 117.513 15.5239C116.773 15.6216 116.026 15.7528 115.295 15.9176C114.555 16.0823 113.869 16.3356 113.256 16.6651C112.635 17.0008 112.129 17.4707 111.757 18.0627C111.382 18.6546 111.193 19.4327 111.193 20.3726C111.193 21.4375 111.446 22.359 111.946 23.1127C112.443 23.8633 113.125 24.4461 113.969 24.8397C114.811 25.2334 115.755 25.4317 116.785 25.4317C117.73 25.4317 118.54 25.2883 119.202 25.0045C119.86 24.7207 120.396 24.3698 120.795 23.964C121.091 23.6619 121.326 23.372 121.499 23.0944V25.0106C121.499 25.093 121.566 25.1571 121.646 25.1571H124.099C124.181 25.1571 124.245 25.09 124.245 25.0106V14.3858C124.245 13.0981 124.029 12.0515 123.605 11.2764C123.178 10.5014 122.633 9.91247 121.987 9.52495V9.5219ZM121.499 19.1215C121.499 19.7592 121.332 20.3726 121.006 20.9523C120.677 21.529 120.186 22.0081 119.543 22.3742C118.9 22.7404 118.099 22.9265 117.16 22.9265C116.221 22.9265 115.435 22.716 114.829 22.301C114.232 21.8921 113.942 21.3032 113.942 20.4946C113.942 19.9118 114.097 19.448 114.405 19.1123C114.722 18.7675 115.149 18.5051 115.673 18.3312C116.212 18.1512 116.8 18.0199 117.428 17.9376C117.69 17.904 118.035 17.8582 118.461 17.8064C118.888 17.7545 119.333 17.6904 119.787 17.6172C120.244 17.5439 120.655 17.4554 121.009 17.3517C121.21 17.2937 121.371 17.2327 121.499 17.1656V19.1215Z" fill="#FFF9F4"/>
<path d="M137.909 17.6111C137.193 16.8848 136.096 16.3356 134.652 15.9847L132.284 15.4019C131.367 15.173 130.687 14.8831 130.263 14.5444C129.855 14.2179 129.654 13.7816 129.654 13.2141C129.654 12.5733 129.95 12.0576 130.562 11.6365C131.181 11.2093 131.973 10.9927 132.915 10.9927C133.6 10.9927 134.17 11.1025 134.603 11.3192C135.039 11.5358 135.386 11.8135 135.636 12.1461C135.858 12.439 136.038 12.7441 136.169 13.0523C136.203 13.1286 136.282 13.1683 136.361 13.1469L138.537 12.5122C138.625 12.4848 138.677 12.3871 138.647 12.2986C138.25 11.2124 137.607 10.3214 136.727 9.64701C135.8 8.93604 134.517 8.57598 132.915 8.57598C131.778 8.57598 130.745 8.78042 129.849 9.1832C128.947 9.58598 128.225 10.1535 127.704 10.8645C127.18 11.5816 126.911 12.4146 126.911 13.3453C126.911 14.4804 127.268 15.4415 127.975 16.1952C128.673 16.9459 129.779 17.5043 131.263 17.8552L133.923 18.4807C134.697 18.6607 135.273 18.9323 135.639 19.2893C136.002 19.6402 136.175 20.0644 136.175 20.5831C136.175 21.2239 135.864 21.7609 135.224 22.2247C134.578 22.6916 133.692 22.9296 132.585 22.9296C131.616 22.9296 130.827 22.7221 130.233 22.3102C129.681 21.9287 129.291 21.3581 129.072 20.6106C129.048 20.5282 128.962 20.4763 128.88 20.4977L126.573 21.0713C126.488 21.0927 126.433 21.1812 126.451 21.2666C126.762 22.5817 127.451 23.6039 128.505 24.2997C129.59 25.0198 130.977 25.3859 132.628 25.3859C133.884 25.3859 134.999 25.1723 135.95 24.7482C136.904 24.3241 137.659 23.7321 138.196 22.9937C138.735 22.2491 139.009 21.3948 139.009 20.4519C139.009 19.3015 138.64 18.3434 137.918 17.608L137.909 17.6111Z" fill="#FFF9F4"/>
<path d="M51.6916 21.7701C50.3234 21.7701 49.784 21.4192 49.784 20.5526C49.784 19.4999 51.1553 18.9811 51.1553 18.9811C52.0634 19.3259 53.133 19.4968 54.2879 19.4968C58.1793 19.4968 60.9524 17.4402 60.9524 14.1569C60.9524 13.449 60.7177 12.2437 59.7578 11.075H62.7076C62.796 11.075 62.8691 11.0018 62.8691 10.9133V8.94519C62.8691 8.8567 62.796 8.78347 62.7076 8.78347H54.2879C50.4331 8.78347 47.6966 10.8401 47.6966 14.1569C47.6966 15.887 48.4523 17.2937 49.7505 18.2335C48.3457 18.8469 47.3736 19.8203 47.3736 21.1903C47.3736 22.2705 47.9068 23.2317 49.0862 23.7535C48.5742 23.8847 46.2217 24.6872 46.2217 27.2168C46.2217 30.14 49.7505 31.4734 54.0015 31.4734C58.6852 31.4734 63.0794 29.9569 63.0794 26.0267C63.0794 23.5734 61.2784 21.7701 57.8563 21.7701H51.6916ZM54.3001 11.0781C56.7014 11.0781 58.1763 12.1735 58.1763 14.1752C58.1763 16.1769 56.7044 17.2052 54.3001 17.2052C51.8958 17.2052 50.4635 16.1098 50.4635 14.1752C50.4635 12.2407 51.9354 11.0781 54.3001 11.0781ZM54.0045 29.1513C51.0395 29.1513 48.9886 28.3366 48.9886 26.4692C48.9886 24.8733 50.4178 24.3637 52.0634 24.3637H57.2255C59.0935 24.3637 60.3003 24.8397 60.3003 26.1976C60.3003 28.3366 57.6643 29.1513 54.0045 29.1513Z" fill="#FFF9F4"/>
<path d="M92.6353 21.7701C91.267 21.7701 90.7276 21.4192 90.7276 20.5526C90.7276 19.4999 92.0989 18.9811 92.0989 18.9811C93.007 19.3259 94.0766 19.4968 95.2316 19.4968C99.123 19.4968 101.896 17.4402 101.896 14.1569C101.896 13.449 101.661 12.2437 100.701 11.075H103.651C103.74 11.075 103.813 11.0018 103.813 10.9133V8.94519C103.813 8.8567 103.74 8.78347 103.651 8.78347H95.2316C91.3767 8.78347 88.6402 10.8401 88.6402 14.1569C88.6402 15.887 89.396 17.2937 90.6941 18.2335C89.2893 18.8469 88.3172 19.8203 88.3172 21.1903C88.3172 22.2705 88.8505 23.2317 90.0298 23.7535C89.5179 23.8847 87.1653 24.6872 87.1653 27.2168C87.1653 30.14 90.6941 31.4734 94.9451 31.4734C99.6288 31.4734 104.023 29.9569 104.023 26.0267C104.023 23.5734 102.222 21.7701 98.8 21.7701H92.6353ZM95.2438 11.0781C97.645 11.0781 99.1199 12.1735 99.1199 14.1752C99.1199 16.1769 97.6481 17.2052 95.2438 17.2052C92.8394 17.2052 91.4072 16.1098 91.4072 14.1752C91.4072 12.2407 92.879 11.0781 95.2438 11.0781ZM94.9482 29.1513C91.9831 29.1513 89.9323 28.3366 89.9323 26.4692C89.9323 24.8733 91.3615 24.3637 93.007 24.3637H98.1692C100.037 24.3637 101.244 24.8397 101.244 26.1976C101.244 28.3366 98.608 29.1513 94.9482 29.1513Z" fill="#FFF9F4"/>
</g>
</g>
<defs>
<clipPath id="clip0_2720_377">
<rect width="139" height="36" fill="white" transform="translate(0 0.560059)"/>
</clipPath>
</defs>
</svg>
